<?xml version="1.0" encoding="UTF-8" standalone="no"?>
<!-- Created with Inkscape (http://www.inkscape.org/) -->

<svg
   xmlns:dc="http://purl.org/dc/elements/1.1/"
   xmlns:cc="http://creativecommons.org/ns#"
   xmlns:rdf="http://www.w3.org/1999/02/22-rdf-syntax-ns#"
   xmlns:svg="http://www.w3.org/2000/svg"
   xmlns="http://www.w3.org/2000/svg"
   xmlns:xlink="http://www.w3.org/1999/xlink"
   xmlns:sodipodi="http://sodipodi.sourceforge.net/DTD/sodipodi-0.dtd"
   xmlns:inkscape="http://www.inkscape.org/namespaces/inkscape"
   width="77.201485"
   height="77.58036"
   id="svg3760"
   version="1.1"
   inkscape:version="0.48.1 "
   sodipodi:docname="DARK.svg">
  <defs
     id="defs3762">
    <linearGradient
       id="linearGradient3795">
      <stop
         id="stop3797"
         offset="0"
         style="stop-color:#1c2224;stop-opacity:1" />
      <stop
         style="stop-color:#2a2723;stop-opacity:1"
         offset="0.63092703"
         id="stop3799" />
      <stop
         id="stop3801"
         offset="1"
         style="stop-color:#e6282e;stop-opacity:1" />
    </linearGradient>
    <linearGradient
       id="linearGradient3432">
      <stop
         style="stop-color:#7260a4;stop-opacity:1;"
         offset="0"
         id="stop3434" />
      <stop
         id="stop3793"
         offset="0.5"
         style="stop-color:#8d4b99;stop-opacity:1;" />
      <stop
         style="stop-color:#a8378f;stop-opacity:1"
         offset="1"
         id="stop3436" />
    </linearGradient>
    <linearGradient
       id="linearGradient3418">
      <stop
         id="stop3420"
         offset="0"
         style="stop-color:#d23388;stop-opacity:1" />
      <stop
         style="stop-color:#ef2e43;stop-opacity:1"
         offset="0.29348826"
         id="stop3422" />
      <stop
         id="stop3430"
         offset="0.68986225"
         style="stop-color:#e5282c;stop-opacity:1" />
      <stop
         id="stop3424"
         offset="1"
         style="stop-color:#602b33;stop-opacity:1" />
    </linearGradient>
    <linearGradient
       id="linearGradient3410">
      <stop
         style="stop-color:#808080;stop-opacity:1;"
         offset="0"
         id="stop3412" />
      <stop
         id="stop3426"
         offset="0.5"
         style="stop-color:#808080;stop-opacity:0.49803922;" />
      <stop
         style="stop-color:#808080;stop-opacity:0.24705882;"
         offset="0.75"
         id="stop3428" />
      <stop
         style="stop-color:#808080;stop-opacity:0;"
         offset="1"
         id="stop3414" />
    </linearGradient>
    <linearGradient
       id="linearGradient3177">
      <stop
         id="stop3179"
         offset="0"
         style="stop-color:#800000;stop-opacity:1" />
      <stop
         style="stop-color:#d69c45;stop-opacity:1"
         offset="0.21338069"
         id="stop3181" />
      <stop
         id="stop3183"
         offset="1"
         style="stop-color:#e5ff6a;stop-opacity:1" />
    </linearGradient>
    <linearGradient
       id="linearGradient4306">
      <stop
         id="stop4308"
         offset="0"
         style="stop-color:#9f863f;stop-opacity:1" />
      <stop
         style="stop-color:#332815;stop-opacity:1"
         offset="1"
         id="stop4310" />
      <stop
         id="stop4312"
         offset="1"
         style="stop-color:#e9e560;stop-opacity:1" />
    </linearGradient>
    <linearGradient
       id="linearGradient4296">
      <stop
         id="stop4298"
         offset="0"
         style="stop-color:#f0bf7a;stop-opacity:0.91071427;" />
      <stop
         style="stop-color:#f0bf7a;stop-opacity:0.45490196;"
         offset="0.64173013"
         id="stop4300" />
      <stop
         id="stop4302"
         offset="1"
         style="stop-color:#f0bf7a;stop-opacity:0;" />
    </linearGradient>
    <linearGradient
       id="linearGradient4230">
      <stop
         style="stop-color:#f0bf7a;stop-opacity:0.91071427;"
         offset="0"
         id="stop4232" />
      <stop
         id="stop4292"
         offset="0.5"
         style="stop-color:#f0bf7a;stop-opacity:0.45490196;" />
      <stop
         style="stop-color:#f0bf7a;stop-opacity:0;"
         offset="1"
         id="stop4234" />
    </linearGradient>
    <linearGradient
       id="linearGradient3111">
      <stop
         style="stop-color:#f3c87d;stop-opacity:0.7589286;"
         offset="0"
         id="stop3113" />
      <stop
         id="stop3119"
         offset="0.91352373"
         style="stop-color:#d69c45;stop-opacity:1" />
      <stop
         style="stop-color:#e5ff6a;stop-opacity:1"
         offset="1"
         id="stop3115" />
    </linearGradient>
    <linearGradient
       id="linearGradient3101">
      <stop
         style="stop-color:#a5864d;stop-opacity:1"
         offset="0"
         id="stop3103" />
      <stop
         id="stop4238"
         offset="0.78602821"
         style="stop-color:#332815;stop-opacity:1" />
      <stop
         style="stop-color:#1a1911;stop-opacity:1"
         offset="1"
         id="stop3105" />
    </linearGradient>
    <radialGradient
       inkscape:collect="always"
       xlink:href="#linearGradient4230"
       id="radialGradient4236"
       cx="306.59958"
       cy="555.36737"
       fx="306.59958"
       fy="555.36737"
       r="6.0054865"
       gradientTransform="matrix(0.60886416,0.50796393,-0.90996045,1.0907119,625.30825,-205.98784)"
       gradientUnits="userSpaceOnUse" />
    <radialGradient
       inkscape:collect="always"
       xlink:href="#linearGradient4306"
       id="radialGradient4304"
       cx="327.57648"
       cy="574.45367"
       fx="327.57648"
       fy="574.45367"
       r="39.671757"
       gradientTransform="matrix(-1.8589783e-6,1.0770613,-1.1551438,-2.9470962e-6,991.28513,221.58125)"
       gradientUnits="userSpaceOnUse" />
    <linearGradient
       y2="22.401928"
       x2="106.24998"
       y1="22.901928"
       x1="143.49998"
       gradientTransform="matrix(1.2113408,0,0,1.2113407,182.53634,525.19736)"
       gradientUnits="userSpaceOnUse"
       id="linearGradient6058"
       xlink:href="#linearGradient5507-3"
       inkscape:collect="always" />
    <linearGradient
       id="linearGradient5507-3">
      <stop
         style="stop-color:#ff0000;stop-opacity:1;"
         offset="0"
         id="stop5509-1" />
      <stop
         style="stop-color:#ff6600;stop-opacity:1"
         offset="1"
         id="stop5511-9" />
    </linearGradient>
    <linearGradient
       y2="22.401928"
       x2="106.24998"
       y1="22.901928"
       x1="143.49998"
       gradientTransform="matrix(1.2113408,0,0,1.2113407,182.53634,525.19736)"
       gradientUnits="userSpaceOnUse"
       id="linearGradient7449"
       xlink:href="#linearGradient5507-3"
       inkscape:collect="always" />
    <linearGradient
       id="linearGradient7451">
      <stop
         style="stop-color:#ff0000;stop-opacity:1;"
         offset="0"
         id="stop7453" />
      <stop
         style="stop-color:#ff6600;stop-opacity:1"
         offset="1"
         id="stop7455" />
    </linearGradient>
    <linearGradient
       y2="22.401928"
       x2="106.24998"
       y1="22.901928"
       x1="143.49998"
       gradientTransform="matrix(0.37606897,0,0,0.37606891,284.34192,546.05033)"
       gradientUnits="userSpaceOnUse"
       id="linearGradient7459"
       xlink:href="#linearGradient5507-3"
       inkscape:collect="always" />
    <linearGradient
       id="linearGradient3111-5">
      <stop
         style="stop-color:#ff0000;stop-opacity:1"
         offset="0"
         id="stop3113-4" />
      <stop
         id="stop3119-9"
         offset="0.91352373"
         style="stop-color:#d69c45;stop-opacity:1" />
      <stop
         style="stop-color:#e5ff6a;stop-opacity:1"
         offset="1"
         id="stop3115-5" />
    </linearGradient>
    <linearGradient
       id="linearGradient3101-4">
      <stop
         style="stop-color:#a5864d;stop-opacity:1"
         offset="0"
         id="stop3103-8" />
      <stop
         id="stop4238-2"
         offset="0.78602821"
         style="stop-color:#332815;stop-opacity:1" />
      <stop
         style="stop-color:#1a1911;stop-opacity:1"
         offset="1"
         id="stop3105-1" />
    </linearGradient>
    <linearGradient
       id="linearGradient4296-8">
      <stop
         id="stop4298-3"
         offset="0"
         style="stop-color:#f0bf7a;stop-opacity:0.91071427;" />
      <stop
         style="stop-color:#f0bf7a;stop-opacity:0.45490196;"
         offset="0.64173013"
         id="stop4300-1" />
      <stop
         id="stop4302-4"
         offset="1"
         style="stop-color:#f0bf7a;stop-opacity:0;" />
    </linearGradient>
    <linearGradient
       inkscape:collect="always"
       xlink:href="#linearGradient3418"
       id="linearGradient3416"
       x1="297.6759"
       y1="553.48169"
       x2="359.14716"
       y2="570.18866"
       gradientUnits="userSpaceOnUse" />
    <linearGradient
       inkscape:collect="always"
       xlink:href="#linearGradient3432"
       id="linearGradient3438"
       x1="301.63666"
       y1="603.81531"
       x2="324.00909"
       y2="564.27753"
       gradientUnits="userSpaceOnUse" />
    <linearGradient
       inkscape:collect="always"
       xlink:href="#linearGradient3795"
       id="linearGradient3791"
       x1="328.6752"
       y1="598.91052"
       x2="335.13403"
       y2="548.35461"
       gradientUnits="userSpaceOnUse" />
    <linearGradient
       inkscape:collect="always"
       xlink:href="#linearGradient5507-3"
       id="linearGradient3081"
       gradientUnits="userSpaceOnUse"
       gradientTransform="matrix(0.37606897,0,0,0.37606891,284.34192,546.05033)"
       x1="143.49998"
       y1="22.901928"
       x2="106.24998"
       y2="22.401928" />
    <linearGradient
       inkscape:collect="always"
       xlink:href="#linearGradient3418"
       id="linearGradient3083"
       gradientUnits="userSpaceOnUse"
       x1="297.6759"
       y1="553.48169"
       x2="359.14716"
       y2="570.18866" />
    <linearGradient
       inkscape:collect="always"
       xlink:href="#linearGradient3795"
       id="linearGradient3085"
       gradientUnits="userSpaceOnUse"
       x1="328.6752"
       y1="598.91052"
       x2="335.13403"
       y2="548.35461" />
    <linearGradient
       inkscape:collect="always"
       xlink:href="#linearGradient3432"
       id="linearGradient3087"
       gradientUnits="userSpaceOnUse"
       x1="301.63666"
       y1="603.81531"
       x2="324.00909"
       y2="564.27753" />
  </defs>
  <sodipodi:namedview
     id="base"
     pagecolor="#ffffff"
     bordercolor="#666666"
     borderopacity="1.0"
     inkscape:pageopacity="0.0"
     inkscape:pageshadow="2"
     inkscape:zoom="4.1329819"
     inkscape:cx="63.856154"
     inkscape:cy="41.588736"
     inkscape:document-units="px"
     inkscape:current-layer="g3783"
     showgrid="false"
     fit-margin-top="0.2"
     fit-margin-left="0.2"
     fit-margin-right="0.2"
     fit-margin-bottom="0.2"
     inkscape:window-width="1280"
     inkscape:window-height="780"
     inkscape:window-x="-8"
     inkscape:window-y="-8"
     inkscape:window-maximized="1"
     inkscape:snap-global="true"
     showguides="true"
     inkscape:guide-bbox="true" />
  <metadata
     id="metadata3765">
    <rdf:RDF>
      <cc:Work
         rdf:about="">
        <dc:format>image/svg+xml</dc:format>
        <dc:type
           rdf:resource="http://purl.org/dc/dcmitype/StillImage" />
        <dc:title />
      </cc:Work>
    </rdf:RDF>
  </metadata>
  <g
     inkscape:label="Layer 1"
     inkscape:groupmode="layer"
     id="layer1"
     transform="translate(-288.81189,-535.37263)">
    <g
       id="g4793"
       transform="matrix(0.96766596,0,0,0.94944363,10.181651,28.771222)">
      <g
         id="g3065">
        <text
           transform="scale(0.99053965,1.0095507)"
           sodipodi:linespacing="125%"
           id="text5503"
           y="555.13312"
           x="319.97443"
           style="font-size:15.04275513px;font-style:normal;font-weight:normal;line-height:125%;letter-spacing:0px;word-spacing:0px;fill:url(#linearGradient3081);fill-opacity:1;stroke:none;font-family:StoneSerITCStd Medium;-inkscape-font-specification:StoneSerITCStd Medium"
           xml:space="preserve"><tspan
             style="font-size:2.25641346px;fill:url(#linearGradient3081);fill-opacity:1"
             y="555.13312"
             x="319.97443"
             id="tspan5505"
             sodipodi:role="line">Created by Falzar FZ</tspan></text>
        <g
           style="display:inline"
           id="g3021"
           transform="translate(0.00547206,0.0258127)">
          <path
             inkscape:connector-curvature="0"
             id="path3048"
             d="m 325.12487,533.76805 c -12.04619,0.12786 -23.83129,6.47825 -30.10708,16.8382 -9.98334,15.47574 -9.2208,37.5796 3.10803,51.55872 7.91058,8.9416 20.14109,13.52621 31.99522,12.68526 12.96871,-0.25474 25.57911,-7.74217 31.66968,-19.25774 5.39871,-9.43832 6.92244,-20.84042 4.7256,-31.45827 -2.298,-13.99137 -13.54381,-26.2257 -27.38604,-29.44165 -4.60618,-0.8471 -9.33291,-0.96193 -14.00541,-0.92452 z"
             style="fill:url(#linearGradient3083);fill-opacity:1;stroke:none" />
          <g
             style="fill:#ffffff;fill-opacity:1"
             transform="translate(-85.682227,0.42272594)"
             id="g4771" />
          <path
             sodipodi:nodetypes="ccccc"
             inkscape:connector-curvature="0"
             id="path3048-3-1"
             d="m 313.77433,554.36015 c -16.09525,1.91834 -22.00562,49.43006 23.19335,43.55164 18.17503,-11.0868 26.88882,-21.81763 25.25395,-29.59012 -4.28871,-9.28069 -6.36597,-6.81399 -12.19801,-3.9823 -22.7935,5.71562 -22.42028,-12.56551 -36.24929,-9.97922 z"
             style="fill:url(#linearGradient3085);fill-opacity:1;stroke:none" />
          <path
             sodipodi:nodetypes="ccssscccccccc"
             inkscape:connector-curvature="0"
             id="path3048-3"
             d="m 319.25832,534.42259 c -17.1721,2.74453 -27.47255,16.64483 -30.52308,32.75312 -2.26633,13.24516 2.11531,28.84901 11.0273,36.73852 7.14713,6.32713 11.97183,10.97739 31.22638,11.13688 12.89226,0.10679 25.58694,-8.765 32.11536,-20.28954 6.64365,-11.7279 4.06281,-28.09614 3.09577,-32.22298 -2.69983,4.70986 -7.44527,9.41562 -18.39552,9.37863 -7.7157,0.7474 -9.21291,3.73285 -0.53087,8.98006 -6.73148,4.93847 -7.36609,6.57008 -10.86213,7.46593 -2.14967,-2.65959 -6.84292,-8.09326 -10.31532,-7.86934 -2.84444,17.35613 -10.7591,12.69319 -15.17995,6.49425 -9.81332,-15.53051 -11.50843,-17.57165 -11.65137,-25.45428 1.57491,-14.02577 5.3228,-21.8361 19.99343,-27.11125 z"
             style="fill:url(#linearGradient3087);fill-opacity:1;stroke:none" />
        </g>
        <g
           style="fill:#fff9f9;fill-opacity:1"
           transform="translate(-92.915959,-2.0293745)"
           id="g3783">
          <path
             id="path3452"
             style="fill:#fff9f9;fill-opacity:1;stroke:none"
             d="m 411.60697,585.47615 c 0,0 -0.62554,2.207 -0.008,3.37653 -0.005,2.25199 -0.0217,7.89294 -0.0278,10.1354 -0.87621,1.46876 -0.008,3.31936 -0.008,3.31936 l 21.19505,-0.006 c 0,0 0.86835,-1.50274 0.0406,-3.4185 0.0269,-2.2589 0.0939,-7.90058 0.12046,-10.13485 0.68576,-1.18914 0.0389,-3.27079 0.0389,-3.27079 z m 17.41644,3.37025 -0.0197,3.3686 -13.15351,-0.0148 -0.0701,-3.31604 z m 0.005,6.75283 -0.054,3.33366 -13.13068,0.0107 -0.0661,-3.36732 z m -8.54762,-25.84427 c -0.008,1.15881 0.82286,3.30496 0.82286,3.30496 0,0 -9.9955,0.0144 -12.4962,0.0861 -0.95434,0.98613 -1.0098,1.87469 0.60406,2.79134 1.42508,-0.47946 4.11943,-0.61318 6.05293,-0.22167 0.2961,0.68719 0.41324,4.12401 0.41324,4.12401 0,0 -8.97836,0.0884 -10.35533,0.67236 -2.46093,0.59336 -5.04172,4.00683 -0.0217,3.79754 3.98048,-1.61154 9.92693,-1.47059 16.65118,-1.50247 5.96958,-0.0283 13.03435,1.24947 17.78872,2.1417 2.5771,-0.87472 3.16291,-3.13825 2.89565,-5.0602 -2.06542,0.0981 -13.27034,-0.248 -13.27034,-0.248 0,0 0.22887,-2.57869 0.71899,-4.21615 2.2619,0.10171 5.4541,0.12554 6.45601,-0.39467 0.61899,-1.10428 0.60215,-1.99413 -0.42451,-2.25189 -1.34649,-0.40576 -11.98598,0.20252 -11.98598,0.20252 0,0 -0.44815,-1.57181 -0.82631,-2.86658 -0.61873,-2.1184 -3.00654,-2.41707 -3.02329,-0.35883 z m 6.35634,5.62561 -0.53552,4.49868 -7.88263,-0.0187 -0.44745,-4.44501 z m 0.95593,-24.61406 c 0,0 -0.93048,1.5238 0.0295,3.19766 0.0256,2.77179 0.1241,13.43303 0.1241,13.43303 0,0 2.43679,1.65034 5.44197,0.13014 4.54937,0.0309 13.20405,0.0698 13.20405,0.0698 0,0 0.0257,23.58747 0.11842,32.75805 -0.0149,2.82003 4.30889,2.85017 4.25836,0.27472 0.11408,-9.99956 0.0605,-49.82329 0.0605,-49.82329 0,0 -1.62972,-1.08115 -3.55255,-0.0931 -3.23499,-0.007 -12.76738,0.0195 -16.01758,0.0113 -2.31947,-0.84864 -3.66679,0.0424 -3.66679,0.0424 z m 18.86678,2.31329 -0.0255,4.34669 -15.35978,-0.054 -0.0579,-4.40939 z m -0.0272,7.76896 -0.1044,4.43409 -15.19715,-0.0499 -0.10201,-4.42909 z m -52.97832,-10.21807 c 0,0 0.27621,32.94583 -0.23136,37.66486 -2.06533,5.03371 -4.39864,7.23928 -5.62016,8.06163 -0.86507,1.27991 0.89909,2.82913 3.18804,4.29545 11.0374,3.6482 7.70314,-31.97362 7.70314,-31.97362 l 19.26022,0.0127 c 0,0 0.0536,-12.0963 0.067,-15.10068 0.99745,-1.73751 0.0131,-2.92564 0.0131,-2.92564 0,0 -1.42684,-1.26662 -3.20386,-0.004 -3.38259,-0.004 -13.56235,-0.0193 -17.0917,-0.0243 -2.59706,-1.48304 -4.08439,-0.005 -4.08439,-0.005 z m 20.95011,7.78604 -16.41023,-0.0146 -0.006,-5.33764 16.52859,0.10386 z m 0.0519,7.91799 -16.43183,0.14841 0.003,-5.65962 16.52076,0.0302 z"
             inkscape:connector-curvature="0"
             sodipodi:nodetypes="cccccccccccccccccccccccccccscccccccsccccccccccccccccccccccccccccccccccccccccccccccccccc" />
        </g>
      </g>
    </g>
  </g>
</svg>
