<?xml version="1.0" encoding="UTF-8" standalone="no"?>
<!-- Created with Inkscape (http://www.inkscape.org/) -->

<svg
   xmlns:dc="http://purl.org/dc/elements/1.1/"
   xmlns:cc="http://creativecommons.org/ns#"
   xmlns:rdf="http://www.w3.org/1999/02/22-rdf-syntax-ns#"
   xmlns:svg="http://www.w3.org/2000/svg"
   xmlns="http://www.w3.org/2000/svg"
   xmlns:xlink="http://www.w3.org/1999/xlink"
   xmlns:sodipodi="http://sodipodi.sourceforge.net/DTD/sodipodi-0.dtd"
   xmlns:inkscape="http://www.inkscape.org/namespaces/inkscape"
   width="77.178017"
   height="77.482025"
   id="svg3760"
   version="1.1"
   inkscape:version="0.48.1 "
   sodipodi:docname="FIRE.svg">
  <defs
     id="defs3762">
    <linearGradient
       inkscape:collect="always"
       id="linearGradient3130">
      <stop
         style="stop-color:#fd0201;stop-opacity:1"
         offset="0"
         id="stop3132" />
      <stop
         style="stop-color:#fe6c6c;stop-opacity:1"
         offset="1"
         id="stop3134" />
    </linearGradient>
    <linearGradient
       id="linearGradient4306">
      <stop
         id="stop4308"
         offset="0"
         style="stop-color:#9f863f;stop-opacity:1" />
      <stop
         style="stop-color:#332815;stop-opacity:1"
         offset="1"
         id="stop4310" />
      <stop
         id="stop4312"
         offset="1"
         style="stop-color:#e9e560;stop-opacity:1" />
    </linearGradient>
    <linearGradient
       id="linearGradient4296">
      <stop
         id="stop4298"
         offset="0"
         style="stop-color:#f0bf7a;stop-opacity:0.91071427;" />
      <stop
         style="stop-color:#f0bf7a;stop-opacity:0.45490196;"
         offset="0.64173013"
         id="stop4300" />
      <stop
         id="stop4302"
         offset="1"
         style="stop-color:#f0bf7a;stop-opacity:0;" />
    </linearGradient>
    <linearGradient
       id="linearGradient4230">
      <stop
         style="stop-color:#f0bf7a;stop-opacity:0.91071427;"
         offset="0"
         id="stop4232" />
      <stop
         id="stop4292"
         offset="0.5"
         style="stop-color:#f0bf7a;stop-opacity:0.45490196;" />
      <stop
         style="stop-color:#f0bf7a;stop-opacity:0;"
         offset="1"
         id="stop4234" />
    </linearGradient>
    <linearGradient
       id="linearGradient3111">
      <stop
         style="stop-color:#f3c87d;stop-opacity:0.7589286;"
         offset="0"
         id="stop3113" />
      <stop
         id="stop3119"
         offset="0.91352373"
         style="stop-color:#d69c45;stop-opacity:1" />
      <stop
         style="stop-color:#e5ff6a;stop-opacity:1"
         offset="1"
         id="stop3115" />
    </linearGradient>
    <linearGradient
       id="linearGradient3101">
      <stop
         style="stop-color:#a5864d;stop-opacity:1"
         offset="0"
         id="stop3103" />
      <stop
         id="stop4238"
         offset="0.78602821"
         style="stop-color:#332815;stop-opacity:1" />
      <stop
         style="stop-color:#1a1911;stop-opacity:1"
         offset="1"
         id="stop3105" />
    </linearGradient>
    <radialGradient
       inkscape:collect="always"
       xlink:href="#linearGradient4230"
       id="radialGradient4236"
       cx="306.59958"
       cy="555.36737"
       fx="306.59958"
       fy="555.36737"
       r="6.0054865"
       gradientTransform="matrix(0.60886416,0.50796393,-0.90996045,1.0907119,625.30825,-205.98784)"
       gradientUnits="userSpaceOnUse" />
    <radialGradient
       inkscape:collect="always"
       xlink:href="#linearGradient4306"
       id="radialGradient4304"
       cx="327.57648"
       cy="574.45367"
       fx="327.57648"
       fy="574.45367"
       r="39.671757"
       gradientTransform="matrix(-1.8589783e-6,1.0770613,-1.1551438,-2.9470962e-6,991.28513,221.58125)"
       gradientUnits="userSpaceOnUse" />
    <linearGradient
       y2="22.401928"
       x2="106.24998"
       y1="22.901928"
       x1="143.49998"
       gradientTransform="matrix(1.2113408,0,0,1.2113407,182.53634,525.19736)"
       gradientUnits="userSpaceOnUse"
       id="linearGradient6058"
       xlink:href="#linearGradient5507-3"
       inkscape:collect="always" />
    <linearGradient
       id="linearGradient5507-3">
      <stop
         style="stop-color:#ff0000;stop-opacity:1;"
         offset="0"
         id="stop5509-1" />
      <stop
         style="stop-color:#ff6600;stop-opacity:1"
         offset="1"
         id="stop5511-9" />
    </linearGradient>
    <linearGradient
       y2="22.401928"
       x2="106.24998"
       y1="22.901928"
       x1="143.49998"
       gradientTransform="matrix(1.2113408,0,0,1.2113407,182.53634,525.19736)"
       gradientUnits="userSpaceOnUse"
       id="linearGradient7449"
       xlink:href="#linearGradient5507-3"
       inkscape:collect="always" />
    <linearGradient
       id="linearGradient7451">
      <stop
         style="stop-color:#ff0000;stop-opacity:1;"
         offset="0"
         id="stop7453" />
      <stop
         style="stop-color:#ff6600;stop-opacity:1"
         offset="1"
         id="stop7455" />
    </linearGradient>
    <linearGradient
       y2="22.401928"
       x2="106.24998"
       y1="22.901928"
       x1="143.49998"
       gradientTransform="matrix(0.44916455,0,0,0.44916448,275.38975,544.3914)"
       gradientUnits="userSpaceOnUse"
       id="linearGradient7459"
       xlink:href="#linearGradient5507-3"
       inkscape:collect="always" />
    <linearGradient
       id="linearGradient3111-5">
      <stop
         style="stop-color:#d69c45;stop-opacity:1"
         offset="0"
         id="stop3113-4" />
      <stop
         id="stop3119-9"
         offset="0.91352373"
         style="stop-color:#d69c45;stop-opacity:1" />
      <stop
         style="stop-color:#e5ff6a;stop-opacity:1"
         offset="1"
         id="stop3115-5" />
    </linearGradient>
    <linearGradient
       id="linearGradient3101-4">
      <stop
         style="stop-color:#a5864d;stop-opacity:1"
         offset="0"
         id="stop3103-8" />
      <stop
         id="stop4238-2"
         offset="0.78602821"
         style="stop-color:#332815;stop-opacity:1" />
      <stop
         style="stop-color:#1a1911;stop-opacity:1"
         offset="1"
         id="stop3105-1" />
    </linearGradient>
    <linearGradient
       id="linearGradient4296-8">
      <stop
         id="stop4298-3"
         offset="0"
         style="stop-color:#f0bf7a;stop-opacity:0.91071427;" />
      <stop
         style="stop-color:#f0bf7a;stop-opacity:0.45490196;"
         offset="0.64173013"
         id="stop4300-1" />
      <stop
         id="stop4302-4"
         offset="1"
         style="stop-color:#f0bf7a;stop-opacity:0;" />
    </linearGradient>
    <linearGradient
       inkscape:collect="always"
       xlink:href="#linearGradient3130"
       id="linearGradient3374"
       x1="400.00031"
       y1="605.45605"
       x2="367.8027"
       y2="473.53757"
       gradientUnits="userSpaceOnUse"
       gradientTransform="matrix(1.0071975,0,0,1.0071975,-72.453521,-3.847163)" />
  </defs>
  <sodipodi:namedview
     id="base"
     pagecolor="#ffffff"
     bordercolor="#666666"
     borderopacity="1.0"
     inkscape:pageopacity="0.0"
     inkscape:pageshadow="2"
     inkscape:zoom="4.6899658"
     inkscape:cx="63.369971"
     inkscape:cy="67.152404"
     inkscape:document-units="px"
     inkscape:current-layer="g3639"
     showgrid="false"
     fit-margin-top="0.2"
     fit-margin-left="0.2"
     fit-margin-right="0.2"
     fit-margin-bottom="0.2"
     inkscape:window-width="1280"
     inkscape:window-height="780"
     inkscape:window-x="-8"
     inkscape:window-y="-8"
     inkscape:window-maximized="1"
     inkscape:snap-global="true"
     showguides="true"
     inkscape:guide-bbox="true" />
  <metadata
     id="metadata3765">
    <rdf:RDF>
      <cc:Work
         rdf:about="">
        <dc:format>image/svg+xml</dc:format>
        <dc:type
           rdf:resource="http://purl.org/dc/dcmitype/StillImage" />
        <dc:title />
      </cc:Work>
    </rdf:RDF>
  </metadata>
  <g
     inkscape:label="Layer 1"
     inkscape:groupmode="layer"
     id="layer1"
     transform="translate(-288.96767,-535.37263)">
    <g
       id="g4793"
       transform="matrix(0.96766596,0,0,0.94944363,10.181651,28.771222)">
      <g
         id="g3053">
        <text
           transform="scale(0.99053965,1.0095507)"
           sodipodi:linespacing="125%"
           id="text5503"
           y="555.23956"
           x="317.94806"
           style="font-size:17.96657753px;font-style:normal;font-weight:normal;line-height:125%;letter-spacing:0px;word-spacing:0px;fill:url(#linearGradient7459);fill-opacity:1;stroke:none;font-family:StoneSerITCStd Medium;-inkscape-font-specification:StoneSerITCStd Medium"
           xml:space="preserve"><tspan
             style="font-size:2.69498682px;fill:url(#linearGradient7459);fill-opacity:1"
             y="555.23956"
             x="317.94806"
             id="tspan5505"
             sodipodi:role="line">Created by Falzar FZ</tspan></text>
        <g
           id="g3021"
           transform="translate(0.16646001,0.0258127)">
          <path
             inkscape:connector-curvature="0"
             id="path3048"
             d="m 325.12487,533.76805 c -12.04619,0.12786 -23.83129,6.47825 -30.10708,16.8382 -9.98334,15.47574 -9.2208,37.5796 3.10803,51.55872 7.91058,8.9416 20.14109,13.52621 31.99522,12.68526 12.96871,-0.25474 25.57911,-7.74217 31.66968,-19.25774 5.39871,-9.43832 6.92244,-20.84042 4.7256,-31.45827 -2.298,-13.99137 -13.54381,-26.2257 -27.38604,-29.44165 -4.60618,-0.8471 -9.33291,-0.96193 -14.00541,-0.92452 z"
             style="fill:#010101;fill-opacity:1;stroke:none" />
          <path
             sodipodi:nodetypes="cccccccccccccccccccccccccc"
             inkscape:connector-curvature="0"
             id="path3340"
             d="m 327.84813,534.53552 c -4.59292,0.16372 -9.26598,0.85527 -13.51495,2.68768 -3.07226,0.50757 -5.45724,0.74277 -7.94154,2.36021 -5.80161,3.30499 -9.67699,8.42984 -12.41022,13.17317 -0.88719,2.08954 -2.42914,4.79267 -2.9089,6.99894 -0.0836,3.85619 -0.0301,6.9882 -0.10748,10.84454 -1.63238,0.89195 -1.74951,2.85978 -1.69832,4.52815 0.12374,1.78475 -0.33294,3.78972 0.47295,5.42648 0.97302,0.71321 1.94876,-1.35175 2.85921,-0.75226 1.47897,2.28297 1.25713,5.25338 2.40776,7.69786 0.39741,2.80162 1.72671,5.29057 2.41491,7.77089 1.34993,2.04492 0.65698,4.79552 1.87748,6.84336 9.25418,8.35849 18.6273,11.98821 29.99925,12.57531 9.24653,0.0169 16.75403,-3.05833 23.647,-8.43561 5.5293,-4.15858 8.47974,-10.5076 11.14101,-16.02245 0.54076,-2.04189 0.0557,-4.26426 0.73091,-6.23717 0.86519,-0.92159 2.256,-1.96364 2.14979,-3.3669 -0.42927,-1.70602 -0.099,-3.56341 -0.57327,-5.30231 -0.25052,-4.07705 0.66416,-8.29081 -0.74526,-12.25523 -3.01964,-8.30371 -7.50458,-10.154 -10.64143,-13.27041 4.61657,1.55742 5.47974,2.93892 7.24212,4.20461 0.28821,0.23756 0.37567,-0.15932 -0.026,-1.17367 -4.31691,-5.96816 -8.66944,-10.698 -14.97681,-13.76704 -5.23106,-2.96794 -13.11318,-4.62076 -18.55978,-4.54277 -0.2796,-0.005 -0.55896,0.008 -0.83842,0.0146 z"
             style="fill:url(#linearGradient3374);fill-opacity:1;stroke:none" />
          <g
             style="fill:#ffffff;fill-opacity:1"
             transform="translate(-85.048806,0.17648662)"
             id="g3305">
            <g
               style="fill:#ffffff;fill-opacity:1"
               transform="translate(-0.16646104,-0.02581481)"
               id="g3166">
              <path
                 inkscape:connector-curvature="0"
                 id="path3164-8"
                 d="m 376.62342,559.299 c 1.74826,-5.16178 9.04832,-15.08384 14.87838,-18.05144 -4.41084,5.11502 -8.60514,12.71145 -9.6923,16.63909 5.04005,-9.49183 8.87882,-12.57126 12.76837,-19.75792 -7.05571,2.29047 -16.27173,12.73613 -17.95445,21.17027 z"
                 style="fill:#ff7372;fill-opacity:1;stroke:none"
                 sodipodi:nodetypes="ccccc" />
              <path
                 inkscape:connector-curvature="0"
                 id="path3164-4"
                 d="m 396.87984,546.6836 c -3.93725,3.46935 -4.35833,7.04915 -2.89245,10.67556 0.0661,-4.47367 0.60938,-7.12782 2.89245,-10.67556 z"
                 style="fill:#ff706f;fill-opacity:1;stroke:none"
                 sodipodi:nodetypes="ccc" />
              <path
                 inkscape:connector-curvature="0"
                 id="path3164-0"
                 d="m 411.5345,613.95862 c 3.13085,0.24632 18.21025,1.42613 31.75321,-13.11965 4.63617,-5.2262 4.7973,-10.96021 6.05566,-24.98307 0.48837,-4.41622 0.5854,-4.72402 2.52977,-8.79962 -1.88141,1.68444 -3.04,2.73107 -4.54039,6.88008 -1.36818,15.75402 -1.76998,20.64751 -6.95553,27.27147 -7.94008,8.12774 -15.97501,11.37425 -28.84272,12.75079 z"
                 style="fill:#ff7274;fill-opacity:1;stroke:none"
                 sodipodi:nodetypes="ccccccc" />
              <path
                 inkscape:connector-curvature="0"
                 id="path3164-6"
                 d="m 414.35729,564.7625 c -1.59038,1.99282 -2.78319,5.82691 -0.64719,6.34685 2.45298,0.5971 3.79664,-9.53869 2.70583,-9.67881 -1.53532,0.43986 -1.8188,1.90932 -2.05864,3.33196 z"
                 style="fill:#ff5d5e;fill-opacity:1;stroke:none"
                 sodipodi:nodetypes="cccc" />
            </g>
            <g
               id="g3639"
               style="fill:#ffffff;fill-opacity:1"
               transform="translate(0.16098296,-0.49223124)">
              <g
                 id="g3081"
                 transform="matrix(1.0620836,0,0,1.1405415,-26.306988,-84.558584)">
                <path
                   transform="matrix(1.0334145,0,0,1.0532484,287.9527,533.71243)"
                   inkscape:connector-curvature="0"
                   id="path3152"
                   d="m 120.93992,18.235514 c -2.39279,0.984337 -1.70892,5.241555 -1.72029,6.462308 -0.52021,5.685793 -5.95215,11.200821 -20.415718,12.098632 -1.315693,1.748833 0.312557,4.395105 3.072118,4.572771 8.39393,-0.08353 14.6532,-3.366391 19.43388,-10.943725 4.79587,3.505838 12.50897,7.989126 17.30569,11.435508 1.81275,0.366116 3.2186,0.113002 5.35675,-1.361374 1.84835,-1.274536 3.45313,-3.014093 1.63009,-3.930168 -6.62769,-0.768897 -9.47215,-2.183696 -14.29639,-4.391981 -2.01721,-1.357814 -8.88619,-4.653431 -8.88619,-4.653431 0,0 -0.13089,-1.561214 0.10999,-4.765977 -0.10435,-1.141946 1.18643,-4.457009 -1.58993,-4.522563 z"
                   style="fill:#ffffff;fill-opacity:1;stroke:none"
                   sodipodi:nodetypes="ccccccsccccc" />
                <path
                   transform="matrix(1.0334145,0,0,1.0532484,287.9527,533.71243)"
                   inkscape:connector-curvature="0"
                   id="path3158"
                   d="m 129.52743,44.251202 c -0.48855,3.101506 1.60371,5.784549 4.37747,6.669155 1.34198,0.0024 4.21167,-1.26491 3.93743,-3.650867 -2.90508,-0.18868 -5.46855,-1.256546 -8.3149,-3.018288 z"
                   style="fill:#ffffff;fill-opacity:1;stroke:none"
                   sodipodi:nodetypes="cccc" />
                <path
                   transform="matrix(1.0334145,0,0,1.0532484,287.9527,533.71243)"
                   inkscape:connector-curvature="0"
                   id="path3160"
                   d="m 111.74875,44.952224 c -1.58285,0.936846 -3.45389,1.049619 -6.75707,1.207315 -1.24459,2.020405 0.51483,5.627691 3.21302,5.413444 1.71404,-1.286587 4.69782,-4.155436 4.84873,-6.270248 0.0475,-0.66515 -0.97202,-0.547407 -1.30468,-0.350511 z"
                   style="fill:#ffffff;fill-opacity:1;stroke:none"
                   sodipodi:nodetypes="sccss" />
                <path
                   transform="matrix(1.0334145,0,0,1.0532484,287.9527,533.71243)"
                   inkscape:connector-curvature="0"
                   id="path3162"
                   d="m 104.71629,24.928056 c -0.49908,2.810879 2.15652,5.808611 5.00729,3.433325 1.13764,-1.035415 4.55676,-4.081417 2.7785,-5.302143 -5.42726,2.571091 -6.44805,0.224958 -7.78579,1.868818 z"
                   style="fill:#ffffff;fill-opacity:1;stroke:none"
                   sodipodi:nodetypes="cccc" />
                <path
                   transform="matrix(1.0334145,0,0,1.0532484,287.9527,533.71243)"
                   inkscape:connector-curvature="0"
                   id="path3164"
                   d="m 129.81065,23.176075 c -1.90617,0.04951 1.27237,5.697553 3.66977,6.025979 2.41784,0.331225 5.62913,-2.584854 3.99527,-3.874519 -4.92801,-0.298389 -4.49324,-0.897549 -7.66504,-2.15146 z"
                   style="fill:#ffffff;fill-opacity:1;stroke:none"
                   sodipodi:nodetypes="cscc" />
                <path
                   inkscape:connector-curvature="0"
                   id="path3152-0"
                   d="m 412.99644,574.74904 c -2.47275,1.03675 -1.76603,5.52066 -1.77778,6.80641 -0.53759,5.98855 -10.93213,13.1895 -25.87899,14.13512 -1.35966,1.84195 0.323,4.62913 3.17477,4.81626 6.90996,0.60812 18.10256,-2.96555 24.86435,-12.74468 4.95612,3.69252 14.57757,10.21285 19.53457,13.84275 1.87332,0.38561 4.19372,0.2831 6.40331,-1.26979 1.91011,-1.3424 3.32704,-3.33866 1.44308,-4.30352 -7.75984,-0.28775 -11.83769,-3.51818 -16.42471,-5.96008 -2.08462,-1.43011 -9.80921,-5.53933 -9.80921,-5.53933 0,0 -0.13527,-1.64435 0.11366,-5.01976 -0.10783,-1.20275 1.22608,-4.69434 -1.64305,-4.76338 z"
                   style="fill:#ffffff;fill-opacity:1;stroke:none"
                   sodipodi:nodetypes="ccccccsccccc"
                   transform="translate(-0.16645639,-0.02581912)" />
              </g>
            </g>
          </g>
        </g>
      </g>
    </g>
  </g>
</svg>
