<?xml version="1.0" encoding="UTF-8" standalone="no"?>
<!-- Created with Inkscape (http://www.inkscape.org/) -->

<svg
   xmlns:dc="http://purl.org/dc/elements/1.1/"
   xmlns:cc="http://creativecommons.org/ns#"
   xmlns:rdf="http://www.w3.org/1999/02/22-rdf-syntax-ns#"
   xmlns:svg="http://www.w3.org/2000/svg"
   xmlns="http://www.w3.org/2000/svg"
   xmlns:xlink="http://www.w3.org/1999/xlink"
   xmlns:sodipodi="http://sodipodi.sourceforge.net/DTD/sodipodi-0.dtd"
   xmlns:inkscape="http://www.inkscape.org/namespaces/inkscape"
   width="77.407059"
   height="77.407059"
   id="svg3222"
   version="1.1"
   inkscape:version="0.48.1 "
   sodipodi:docname="zField.svg">
  <defs
     id="defs3224">
    <linearGradient
       y2="22.401928"
       x2="106.24998"
       y1="22.901928"
       x1="143.49998"
       gradientTransform="matrix(0.48429931,0,0,0.48429922,310.09527,520.09598)"
       gradientUnits="userSpaceOnUse"
       id="linearGradient3069"
       xlink:href="#linearGradient5507-3"
       inkscape:collect="always" />
    <linearGradient
       id="linearGradient5507-3">
      <stop
         style="stop-color:#ff0000;stop-opacity:1;"
         offset="0"
         id="stop5509-1" />
      <stop
         style="stop-color:#ff6600;stop-opacity:1"
         offset="1"
         id="stop5511-9" />
    </linearGradient>
    <linearGradient
       y2="22.401928"
       x2="106.24998"
       y1="22.901928"
       x1="143.49998"
       gradientTransform="matrix(0.48429931,0,0,0.48429922,310.09527,520.09598)"
       gradientUnits="userSpaceOnUse"
       id="linearGradient3169"
       xlink:href="#linearGradient5507-3"
       inkscape:collect="always" />
    <linearGradient
       id="linearGradient3171">
      <stop
         style="stop-color:#ff0000;stop-opacity:1;"
         offset="0"
         id="stop3173" />
      <stop
         style="stop-color:#ff6600;stop-opacity:1"
         offset="1"
         id="stop3175" />
    </linearGradient>
    <linearGradient
       inkscape:collect="always"
       xlink:href="#linearGradient3226"
       id="linearGradient3232"
       x1="21.119179"
       y1="66.648323"
       x2="57.680717"
       y2="13.215973"
       gradientUnits="userSpaceOnUse" />
    <linearGradient
       id="linearGradient3226">
      <stop
         style="stop-color:#3f3126;stop-opacity:1;"
         offset="0"
         id="stop3228" />
      <stop
         id="stop3242"
         offset="0.25345612"
         style="stop-color:#1a120c;stop-opacity:1;" />
      <stop
         id="stop3240"
         offset="0.47454613"
         style="stop-color:#211710;stop-opacity:1;" />
      <stop
         id="stop3238"
         offset="0.62175792"
         style="stop-color:#523723;stop-opacity:1;" />
      <stop
         id="stop3236"
         offset="0.72568625"
         style="stop-color:#493122;stop-opacity:1;" />
      <stop
         id="stop3234"
         offset="0.84443307"
         style="stop-color:#4b3223;stop-opacity:1" />
      <stop
         style="stop-color:#1f2123;stop-opacity:1"
         offset="1"
         id="stop3230" />
    </linearGradient>
    <filter
       id="filter3547"
       inkscape:label="Organic"
       x="0"
       y="0"
       width="1"
       height="1"
       inkscape:menu="Textures"
       inkscape:menu-tooltip="Bulging, knotty, slick 3D surface"
       color-interpolation-filters="sRGB">
      <feTurbulence
         id="feTurbulence3549"
         numOctaves="3"
         baseFrequency="0.037"
         result="result0" />
      <feSpecularLighting
         id="feSpecularLighting3551"
         specularExponent="24.29999924"
         surfaceScale="2"
         specularConstant="1"
         result="result1">
        <feDistantLight
           id="feDistantLight3553"
           elevation="45"
           azimuth="225" />
      </feSpecularLighting>
      <feDiffuseLighting
         id="feDiffuseLighting3555"
         in="result0"
         surfaceScale="3"
         diffuseConstant="1.21000004"
         result="result2">
        <feDistantLight
           id="feDistantLight3557"
           azimuth="225"
           elevation="42" />
      </feDiffuseLighting>
      <feBlend
         id="feBlend3559"
         in2="SourceGraphic"
         mode="multiply"
         result="result91" />
      <feComposite
         k4="0"
         k1="0"
         id="feComposite3561"
         in2="result91"
         operator="arithmetic"
         in="result1"
         k2="1"
         k3="1"
         result="result92" />
      <feComposite
         id="feComposite3563"
         in2="SourceAlpha"
         operator="in"
         result="result2" />
    </filter>
    <linearGradient
       y2="18.742847"
       x2="67.666588"
       y1="55.566059"
       x1="5.9798379"
       gradientTransform="matrix(0.93344604,0,0,0.93124832,337.8838,495.24351)"
       gradientUnits="userSpaceOnUse"
       id="linearGradient3288"
       xlink:href="#linearGradient3614-7-3"
       inkscape:collect="always" />
    <linearGradient
       id="linearGradient3614-7-3">
      <stop
         id="stop3616-4-7"
         offset="0"
         style="stop-color:#eaeaeb;stop-opacity:1" />
      <stop
         style="stop-color:#a3a3a3;stop-opacity:1"
         offset="0.17826565"
         id="stop3630-0-0" />
      <stop
         style="stop-color:#dad9d9;stop-opacity:1"
         offset="0.37303641"
         id="stop3628-9-9" />
      <stop
         style="stop-color:#979797;stop-opacity:1"
         offset="0.4905695"
         id="stop3626-4-2" />
      <stop
         style="stop-color:#858585;stop-opacity:1"
         offset="0.61295938"
         id="stop3624-8-5" />
      <stop
         style="stop-color:#f0f3f5;stop-opacity:1"
         offset="0.82820266"
         id="stop3622-8-2" />
      <stop
         id="stop3618-2-2"
         offset="1"
         style="stop-color:#a4a4a4;stop-opacity:1" />
    </linearGradient>
    <filter
       id="filter3625"
       inkscape:label="Organic"
       x="0"
       y="0"
       width="1"
       height="1"
       inkscape:menu="Textures"
       inkscape:menu-tooltip="Bulging, knotty, slick 3D surface"
       color-interpolation-filters="sRGB">
      <feTurbulence
         id="feTurbulence3627"
         numOctaves="3"
         baseFrequency="0.037"
         result="result0" />
      <feSpecularLighting
         id="feSpecularLighting3629"
         specularExponent="24.29999924"
         surfaceScale="2"
         specularConstant="1"
         result="result1">
        <feDistantLight
           id="feDistantLight3631"
           elevation="45"
           azimuth="225" />
      </feSpecularLighting>
      <feDiffuseLighting
         id="feDiffuseLighting3633"
         in="result0"
         surfaceScale="3"
         diffuseConstant="1.21000004"
         result="result2">
        <feDistantLight
           id="feDistantLight3635"
           azimuth="225"
           elevation="42" />
      </feDiffuseLighting>
      <feBlend
         id="feBlend3637"
         in2="SourceGraphic"
         mode="multiply"
         result="result91" />
      <feComposite
         k4="0"
         k1="0"
         id="feComposite3639"
         in2="result91"
         operator="arithmetic"
         in="result1"
         k2="1"
         k3="1"
         result="result92" />
      <feComposite
         id="feComposite3641"
         in2="SourceAlpha"
         operator="in"
         result="result2" />
    </filter>
    <linearGradient
       inkscape:collect="always"
       xlink:href="#linearGradient3226-7"
       id="linearGradient3232-1"
       x1="21.119179"
       y1="66.648323"
       x2="57.680717"
       y2="13.215973"
       gradientUnits="userSpaceOnUse" />
    <linearGradient
       id="linearGradient3226-7">
      <stop
         style="stop-color:#3f3126;stop-opacity:1;"
         offset="0"
         id="stop3228-4" />
      <stop
         id="stop3242-0"
         offset="0.25345612"
         style="stop-color:#1a120c;stop-opacity:1;" />
      <stop
         id="stop3240-9"
         offset="0.47454613"
         style="stop-color:#211710;stop-opacity:1;" />
      <stop
         id="stop3238-4"
         offset="0.62175792"
         style="stop-color:#523723;stop-opacity:1;" />
      <stop
         id="stop3236-8"
         offset="0.72568625"
         style="stop-color:#493122;stop-opacity:1;" />
      <stop
         id="stop3234-8"
         offset="0.84443307"
         style="stop-color:#4b3223;stop-opacity:1" />
      <stop
         style="stop-color:#1f2123;stop-opacity:1"
         offset="1"
         id="stop3230-2" />
    </linearGradient>
    <filter
       id="filter3084"
       inkscape:label="Organic"
       x="0"
       y="0"
       width="1"
       height="1"
       inkscape:menu="Textures"
       inkscape:menu-tooltip="Bulging, knotty, slick 3D surface"
       color-interpolation-filters="sRGB">
      <feTurbulence
         id="feTurbulence3086"
         numOctaves="3"
         baseFrequency="0.037"
         result="result0" />
      <feSpecularLighting
         id="feSpecularLighting3088"
         specularExponent="24.3"
         surfaceScale="2"
         specularConstant="1"
         result="result1">
        <feDistantLight
           id="feDistantLight3090"
           elevation="45"
           azimuth="225" />
      </feSpecularLighting>
      <feDiffuseLighting
         id="feDiffuseLighting3092"
         in="result0"
         surfaceScale="3"
         diffuseConstant="1.21"
         result="result2">
        <feDistantLight
           id="feDistantLight3094"
           azimuth="225"
           elevation="42" />
      </feDiffuseLighting>
      <feBlend
         id="feBlend3096"
         in2="SourceGraphic"
         mode="multiply"
         result="result91" />
      <feComposite
         id="feComposite3098"
         in2="result91"
         operator="arithmetic"
         in="result1"
         k2="1"
         k3="1"
         result="result92" />
      <feComposite
         id="feComposite3100"
         in2="SourceAlpha"
         operator="in"
         result="result2" />
    </filter>
  </defs>
  <sodipodi:namedview
     id="base"
     pagecolor="#ffffff"
     bordercolor="#666666"
     borderopacity="1.0"
     inkscape:pageopacity="0.0"
     inkscape:pageshadow="2"
     inkscape:zoom="2.2467213"
     inkscape:cx="81.945023"
     inkscape:cy="84.671216"
     inkscape:document-units="px"
     inkscape:current-layer="g3654"
     showgrid="false"
     fit-margin-left="0.2"
     fit-margin-bottom="0.2"
     fit-margin-top="0.2"
     fit-margin-right="0.2"
     inkscape:window-width="1280"
     inkscape:window-height="780"
     inkscape:window-x="-8"
     inkscape:window-y="-8"
     inkscape:window-maximized="1" />
  <metadata
     id="metadata3227">
    <rdf:RDF>
      <cc:Work
         rdf:about="">
        <dc:format>image/svg+xml</dc:format>
        <dc:type
           rdf:resource="http://purl.org/dc/dcmitype/StillImage" />
        <dc:title />
      </cc:Work>
    </rdf:RDF>
  </metadata>
  <g
     inkscape:label="Layer 1"
     inkscape:groupmode="layer"
     id="layer1"
     transform="translate(-336.2939,-493.65608)">
    <g
       style="display:inline"
       transform="translate(-86.286574,-12.152682)"
       id="layer1-4"
       inkscape:label="Layer 1" />
    <g
       transform="translate(1.1635559,1.2696485)"
       style="display:inline"
       id="g3654">
      <text
         xml:space="preserve"
         style="font-size:19.37196732px;font-style:normal;font-weight:normal;line-height:125%;letter-spacing:0px;word-spacing:0px;fill:url(#linearGradient3069);fill-opacity:1;stroke:none;font-family:StoneSerITCStd Medium;-inkscape-font-specification:StoneSerITCStd Medium"
         x="355.98264"
         y="531.79266"
         id="text5503"
         sodipodi:linespacing="125%"><tspan
           sodipodi:role="line"
           id="tspan5505"
           x="355.98264"
           y="531.79266"
           style="font-size:2.90579534px;fill:url(#linearGradient3069);fill-opacity:1">Created by Falzar FZ</tspan></text>
      <path
         sodipodi:type="arc"
         style="fill:url(#linearGradient3232);fill-opacity:1;stroke:#131b40;stroke-width:0;stroke-miterlimit:4.0999999;stroke-opacity:1;stroke-dasharray:none"
         id="path3293"
         sodipodi:cx="36.399899"
         sodipodi:cy="36.455563"
         sodipodi:rx="36.5522"
         sodipodi:ry="36.399899"
         d="m 72.952099,36.455563 c 0,20.103108 -16.364978,36.399898 -36.5522,36.399898 -20.187223,0 -36.55220079,-16.29679 -36.55220079,-36.399898 0,-20.103109 16.36497779,-36.39989894 36.55220079,-36.39989894 20.187222,0 36.5522,16.29678994 36.5522,36.39989894 z"
         transform="matrix(1.0518167,0,0,1.0562477,335.55042,492.58643)" />
      <path
         sodipodi:type="arc"
         style="fill:#666666;fill-opacity:1;stroke:#131b40;stroke-width:0;stroke-miterlimit:4.09999990000000030;stroke-opacity:1;stroke-dasharray:none;display:inline;opacity:0.12000000000000000;filter:url(#filter3084)"
         id="path3293-4"
         sodipodi:cx="36.399899"
         sodipodi:cy="36.455563"
         sodipodi:rx="36.5522"
         sodipodi:ry="36.399899"
         d="m 72.952099,36.455563 a 36.5522,36.399899 0 1 1 -73.10440079,0 36.5522,36.399899 0 1 1 73.10440079,0 z"
         transform="matrix(1.0518167,0,0,1.0562477,335.55042,492.58643)" />
      <path
         d="m 374.48364,498.09467 c -6.21746,0.15003 -12.54332,1.46003 -17.79381,4.91815 -9.49187,5.96411 -15.77765,16.8518 -15.69358,28.11207 -0.0951,4.59892 0.44192,9.22788 2.04191,13.5613 3.12303,9.0264 10.72532,16.10987 19.57321,19.49802 4.23696,1.64988 8.81622,2.32547 13.35996,2.0662 3.89391,-0.003 7.80644,-0.47262 11.43471,-1.9498 7.4936,-3.05188 14.07508,-8.55379 17.93966,-15.68571 4.17057,-8.06289 5.01016,-17.77529 2.53781,-26.48238 -1.89127,-6.45223 -6.0163,-12.03355 -10.93882,-16.52965 -6.0344,-5.50051 -14.42437,-7.6885 -22.46106,-7.5082 z m -0.99178,2.91015 -8.54686,22.17535 -20.97338,7.47909 c 0,0 0.0192,-2.8105 0.11667,-4.53984 2.16656,-11.69367 11.56598,-21.62371 23.13198,-24.47435 1.45044,-0.25242 6.27159,-0.64025 6.27159,-0.64025 z m 3.26706,0.11641 c 0,0 2.76231,0.052 4.87142,0.17461 l 0.0291,0 c 6.46561,1.35528 12.41909,4.78749 16.83121,9.6908 3.85817,4.15298 6.53321,9.39577 7.67175,14.95817 0.30931,1.7402 -0.0291,5.03457 -0.0291,5.03457 l -20.71083,-7.15897 z m -0.52506,10.15642 6.67997,13.18299 -6.6508,6.63515 -0.0291,-19.81814 z m -8.89691,13.15389 6.67998,6.63515 -19.86491,0.029 13.18493,-6.66425 z m 28.76181,8.84685 -13.85257,5.32898 -6.01233,-5.29987 19.8649,-0.029 z m -22.08183,0.029 0.0291,19.81813 -6.67996,-13.18298 6.6508,-6.63515 z m -30.04531,0.46562 21.06088,6.63515 7.61343,22.32086 c 0,0 -7.98256,-0.68296 -9.97621,-1.51328 -8.9164,-3.8051 -15.84054,-11.82507 -18.2022,-21.21501 -0.18247,-1.67376 -0.4959,-6.22772 -0.4959,-6.22772 z m 62.19084,1.19317 c 0,0 0.32765,1.46862 0,3.49217 -1.1765,5.27717 -3.53111,10.35955 -7.17585,14.40525 -4.48171,5.16806 -10.7103,8.92392 -17.44378,10.21463 -2.19385,0.0507 -3.67544,-0.17461 -3.67544,-0.17461 l 7.00084,-22.72828 z m -31.51919,-37.61033 c -12.12892,0.0669 -23.86091,7.06054 -29.7803,17.6245 -6.35082,10.93923 -5.95808,25.39415 0.92797,35.99787 4.09164,6.35453 10.27084,11.37753 17.40546,13.93247 7.18192,2.75276 15.26547,2.82464 22.5734,0.47992 9.58755,-2.96759 17.59382,-10.43196 21.53284,-19.62832 3.66367,-8.75436 3.62136,-19.03368 -0.28546,-27.70288 -4.92029,-11.44627 -16.4557,-19.60974 -28.86045,-20.58235 -1.16834,-0.0995 -2.34103,-0.1412 -3.51346,-0.12121 z m 0.55487,4.10601 c 10.18344,-0.10077 20.14594,5.32001 25.6617,13.84696 6.48247,9.61147 6.73713,22.96745 0.62225,32.8172 -4.4531,7.3539 -12.04682,12.74374 -20.55203,14.29138 -2.82383,0.4724 -5.73228,0.58755 -8.58749,0.43044 -9.74825,-0.82108 -18.77749,-6.69536 -23.70029,-15.07693 -3.09197,-5.17534 -4.51473,-11.25976 -4.13392,-17.27842 0.40469,-11.29997 7.74894,-21.83463 18.06214,-26.343 3.94888,-1.7668 8.28981,-2.69332 12.62764,-2.68763 z"
         style="fill:#070506;fill-opacity:1;stroke:none;display:inline"
         id="path3316-4-9"
         inkscape:connector-curvature="0"
         sodipodi:nodetypes="ccccccccccccccccccccccccccccccccccccccccccccccccccccccccccccccccccccccccccccc" />
      <path
         sodipodi:nodetypes="cccccccccccccccccccccccccccccccccccccccccccccccccccccccccccccccccccccccccccc"
         inkscape:connector-curvature="0"
         d="m 373.14833,496.98192 c -6.21746,0.15003 -12.54332,1.46003 -17.79381,4.91815 -9.49186,5.96411 -15.77764,16.8518 -15.69356,28.11207 -0.0951,4.59892 0.44192,9.22788 2.04191,13.5613 3.12303,9.0264 10.72531,16.10987 19.5732,19.49802 4.23696,1.64988 8.81622,2.32547 13.35995,2.0662 3.89392,-0.003 7.80645,-0.47262 11.43471,-1.9498 7.4936,-3.05188 14.07508,-8.55379 17.93967,-15.68571 4.17056,-8.06289 5.01016,-17.77529 2.53781,-26.48238 -1.89127,-6.45223 -6.0163,-12.03355 -10.93882,-16.52965 -6.0344,-5.50051 -14.42437,-7.6885 -22.46106,-7.5082 z m -0.99178,2.91015 -8.54686,22.17535 -20.97337,7.47909 c 0,0 0.0192,-2.8105 0.11667,-4.53984 2.16656,-11.69367 11.56597,-21.62371 23.13197,-24.47435 1.45044,-0.25242 6.27159,-0.64025 6.27159,-0.64025 z m 3.26706,0.11641 c 0,0 2.76231,0.052 4.87142,0.17461 l 0.0291,0 c 6.46561,1.35528 12.41909,4.78749 16.83121,9.6908 3.85817,4.15298 6.53321,9.39577 7.67175,14.95817 0.30931,1.7402 -0.0291,5.03457 -0.0291,5.03457 l -20.71083,-7.15897 z m -0.52506,5.2604 6.67997,18.07901 -6.6508,6.63515 -0.0291,-24.71416 z m -7.56163,18.04991 5.3447,6.63515 -25.09475,0.029 19.75005,-6.66425 z m 34.43675,8.84685 -20.49638,5.07944 -6.37874,-5.05033 26.87512,-0.029 z m -29.09205,0.029 0.0291,25.38179 -6.34614,-19.30301 6.31698,-6.07878 z m -30.0453,0.46562 21.06087,6.63515 7.61343,22.32086 c 0,0 -7.98256,-0.68296 -9.97621,-1.51328 -8.9164,-3.8051 -15.84053,-11.82507 -18.20219,-21.21501 -0.18247,-1.67376 -0.4959,-6.22772 -0.4959,-6.22772 z m 62.19083,1.19317 c 0,0 0.32765,1.46862 0,3.49217 -1.1765,5.27717 -3.53111,10.35955 -7.17585,14.40525 -4.48171,5.16806 -10.7103,8.92392 -17.44378,10.21463 -2.19385,0.0507 -3.67544,-0.17461 -3.67544,-0.17461 l 7.00084,-22.72828 z M 373.30796,496.2431 c -12.12892,0.0669 -23.86091,7.06054 -29.78029,17.6245 -6.35081,10.93923 -5.95807,25.39415 0.92797,35.99787 4.09164,6.35453 10.27083,11.37753 17.40545,13.93247 7.18192,2.75276 15.26547,2.82464 22.5734,0.47992 9.58755,-2.96759 17.59382,-10.43196 21.53284,-19.62832 3.66367,-8.75436 3.62136,-19.03368 -0.28546,-27.70288 -4.92029,-11.44627 -16.4557,-19.60974 -28.86045,-20.58235 -1.16834,-0.0995 -2.34103,-0.1412 -3.51346,-0.12121 z m 0.55487,4.10601 c 10.18345,-0.10077 20.14595,5.32001 25.66171,13.84696 6.48247,9.61147 6.73713,22.96745 0.62225,32.8172 -4.45311,7.3539 -12.04682,12.74374 -20.55203,14.29138 -2.82383,0.4724 -5.73228,0.58755 -8.5875,0.43044 -9.74824,-0.82108 -18.77748,-6.69536 -23.70028,-15.07693 -3.09197,-5.17534 -4.51473,-11.25976 -4.13392,-17.27842 0.40469,-11.29997 7.74893,-21.83463 18.06214,-26.343 3.94888,-1.7668 8.2898,-2.69332 12.62763,-2.68763 z"
         style="fill:url(#linearGradient3288);fill-opacity:1;stroke:none;display:inline"
         id="path3316-4" />
      <path
         d="m 373.14833,496.98192 c -6.21746,0.15003 -12.54332,1.46003 -17.79381,4.91815 -9.49187,5.96411 -15.77765,16.8518 -15.69357,28.11207 -0.0951,4.59892 0.44192,9.22788 2.04191,13.5613 3.12303,9.0264 10.72532,16.10987 19.57321,19.49802 4.23696,1.64988 8.81622,2.32547 13.35995,2.0662 3.89392,-0.003 7.80645,-0.47262 11.43471,-1.9498 7.4936,-3.05188 14.07508,-8.55379 17.93967,-15.68571 4.17056,-8.06289 5.01016,-17.77529 2.53781,-26.48238 -1.89127,-6.45223 -6.0163,-12.03355 -10.93882,-16.52965 -6.0344,-5.50051 -14.42437,-7.6885 -22.46106,-7.5082 z m -0.99178,2.91015 -8.54686,22.17535 -20.97338,7.47909 c 0,0 0.0192,-2.8105 0.11667,-4.53984 2.16656,-11.69367 11.56598,-21.62371 23.13198,-24.47435 1.45044,-0.25242 6.27159,-0.64025 6.27159,-0.64025 z m 3.26706,0.11641 c 0,0 2.76231,0.052 4.87142,0.17461 l 0.0291,0 c 6.46561,1.35528 12.41909,4.78749 16.83121,9.6908 3.85817,4.15298 6.53321,9.39577 7.67175,14.95817 0.30931,1.7402 -0.0291,5.03457 -0.0291,5.03457 l -20.71083,-7.15897 -8.66355,-22.69918 z m -0.52506,10.15642 6.67997,13.18299 -6.6508,6.63515 -0.0291,-19.81814 z m -8.89691,13.15389 6.67998,6.63515 -19.86491,0.029 13.18493,-6.66425 z m 28.76181,8.84685 -13.18493,6.66426 -6.67997,-6.63515 19.8649,-0.029 z m -22.08183,0.029 0.0291,19.81813 -6.67996,-13.18298 6.6508,-6.63515 z m -30.04531,0.46562 21.06088,6.63515 7.61343,22.32086 c 0,0 -7.98256,-0.68296 -9.97621,-1.51328 -8.9164,-3.8051 -15.84054,-11.82507 -18.2022,-21.21501 -0.18247,-1.67376 -0.4959,-6.22772 -0.4959,-6.22772 z m 62.19084,1.19317 c 0,0 0.32765,1.46862 0,3.49217 -1.1765,5.27717 -3.53111,10.35955 -7.17585,14.40525 -4.48171,5.16806 -10.7103,8.92392 -17.44378,10.21463 -2.19385,0.0507 -3.67544,-0.17461 -3.67544,-0.17461 l 7.00084,-22.72828 21.29423,-5.20916 z M 373.30796,496.2431 c -12.12892,0.0669 -23.86091,7.06054 -29.7803,17.6245 -6.35081,10.93923 -5.95807,25.39415 0.92797,35.99787 4.09164,6.35453 10.27084,11.37753 17.40546,13.93247 7.18192,2.75276 15.26547,2.82464 22.5734,0.47992 9.58755,-2.96759 17.59382,-10.43196 21.53284,-19.62832 3.66368,-8.75436 3.62136,-19.03368 -0.28546,-27.70288 -4.92029,-11.44627 -16.4557,-19.60974 -28.86045,-20.58235 -1.16834,-0.0995 -2.34103,-0.1412 -3.51346,-0.12121 z m 0.55487,4.10601 c 10.18345,-0.10077 20.14595,5.32001 25.66171,13.84696 6.48247,9.61147 6.73713,22.96745 0.62225,32.8172 -4.4531,7.3539 -12.04682,12.74374 -20.55203,14.29138 -2.82383,0.4724 -5.73228,0.58755 -8.58749,0.43044 -9.74825,-0.82108 -18.77749,-6.69536 -23.70029,-15.07693 -3.09197,-5.17534 -4.51473,-11.25976 -4.13392,-17.27842 0.40469,-11.29997 7.74894,-21.83463 18.06214,-26.343 3.94888,-1.7668 8.28981,-2.69332 12.62764,-2.68763 z"
         style="opacity:0.11000001;fill:#4d4d4d;fill-opacity:1;stroke:none;display:inline;filter:url(#filter3625)"
         id="path3316-4-93"
         inkscape:connector-curvature="0" />
    </g>
  </g>
</svg>
